# xmcd
#
# Track frame offsets:
#	150
#	18412
#	39905
#	61150
#	81037
#	95917
#	112050
#	127510
#	141937
#	159052
#
# Disc length: 2406 seconds
#
# Revision: 1
# Processed by: cddbd v1.5PL3 Copyright (c) Steve Scherf et al.
# Submitted via: CDex 1.50Beta5
#
DISCID=7309640a
DTITLE=ひふみかおり - Wild Mild Energy
DYEAR=1998
DGENRE=Rock
TTITLE0=Everybody Go!Go!Go! ~Super Nasty Mix~
TTITLE1=悲しむのはシャクだから
TTITLE2=Wake Up
TTITLE3=Heartily
TTITLE4=究極のMenu
TTITLE5=My Life
TTITLE6=Girl's Power
TTITLE7=Call Me
TTITLE8=BYE
TTITLE9=笑い飛ばしてやる
EXTD=
EXTT0=
EXTT1=
EXTT2=
EXTT3=
EXTT4=
EXTT5=
EXTT6=
EXTT7=
EXTT8=
EXTT9=
PLAYORDER=
